# xmcd CD database file
#
# Track frame offsets:
#	150
#	15255
#	30057
#	51455
#	65537
#	85755
#	117660
#	145550
#	170385
#
# Disc length: 2891 seconds
#
# Revision: 0
# Processed by: cddbd v1.5.2PL0 Copyright (c) Steve Scherf et al.
# Submitted via: CDex 1.51
#
DISCID=680b4909
DTITLE=Ebeling Bros - All U can eat
DYEAR=1991
DGENRE=Blues
TTITLE0=Other than that
TTITLE1=Come into my kitchen
TTITLE2=Walking my blues away
TTITLE3=Wait on it
TTITLE4=Boom Boom
TTITLE5=Built for comfort
TTITLE6=One's too many
TTITLE7=Hey Pockey way
TTITLE8=Suicide
EXTD=YEAR: 1991
EXTT0=
EXTT1=
EXTT2=
EXTT3=
EXTT4=
EXTT5=
EXTT6=
EXTT7=
EXTT8=
PLAYORDER=
